<svg viewBox="498.05 318 420.9 140" width="5000" height="1663.1028747921123" xmlns="http://www.w3.org/2000/svg" xmlns:xlink="http://www.w3.org/1999/xlink" preserveAspectRatio="none"><defs></defs><style>.a6izo4zJpcolor {fill:#FFEDDF;fill-opacity:1;}.aD6z1nYkhcolor {fill:#FFEDDF;fill-opacity:1;}.afLFjplbod0filter-floo {flood-color:#FFEDDF;flood-opacity:0.5;}.aIptOCySncolors-0 {fill:#FFEDDF;fill-opacity:1;}.as6KyYiT9-fillColor {fill:#06273A;fill-opacity:1;}.as6KyYiT9-strokeColor-str {stroke:#06273A;stroke-opacity:1;}.atBXipXk0bfillColor {fill:#FFEDDF;fill-opacity:1;}.icon3-str {stroke:#FEB7C7;stroke-opacity:1;}.shapeStroke-str {stroke:#4654A3;stroke-opacity:1;}</style><defs>
      <filter
        x="498.05"
        y="318"
        width="420.9"
        height="140"
        id="fLFjplbod"
        filterUnits="userSpaceOnUse"
        primitiveUnits="userSpaceOnUse"
        color-interpolation-filters="sRGB">
        <feMerge><feMergeNode in="SourceGraphic" /></feMerge>
      </filter></defs><g opacity="1" transform="rotate(0 498.05 318)">
<svg width="420.9" height="140" x="498.05" y="318" version="1.1" preserveAspectRatio="none" viewBox="0 0 420.9 140">
  <rect x="0" y="0" width="420.9" height="140" class="as6KyYiT9-fillColor as6KyYiT9-strokeColor-str" style="stroke-width:0;" rx="2px" ry="2px" />
</svg>
</g><g opacity="1" transform="rotate(0 518.5 349.2189)">
<svg width="99.8785" height="49.4476" x="518.5" y="349.2189" version="1.1" preserveAspectRatio="none" viewBox="45.52401351928711 73.03038787841797 108.95199584960938 53.939659118652344">
  <g transform="matrix(1 0 0 1 0 0)" ><g><path d="M154.475 84.484c-.088-3.625-1.728-6.938-4.497-9.092-2.681-2.083-6.15-2.838-9.52-2.065-6.233 1.425-28.446 12.277-29.389 12.739l-1.004.492h-20.13l-1.004-.492c-.942-.461-23.155-11.313-29.389-12.739-3.37-.769-6.84-.019-9.52 2.066-2.77 2.153-4.409 5.467-4.497 9.092l-.001.022.001 31.011c.088 3.625 1.728 6.938 4.497 9.092a11.229 11.229 0 0 0 6.915 2.36c.864 0 1.738-.097 2.605-.295 6.233-1.43 28.445-12.278 29.388-12.739l.884-.433h20.372l.884.433c.942.461 23.154 11.31 29.389 12.739.867.198 1.739.295 2.604.295 2.497 0 4.924-.812 6.914-2.36 2.771-2.153 4.41-5.467 4.499-9.137V84.529l-.001-.045zM89.954 90.21h20.093v19.64H89.954V90.21zm-31.227 32.904c-2.33.537-4.627.04-6.464-1.388-1.9-1.478-3.026-3.773-3.087-6.254v-30.92c.067-2.516 1.191-4.803 3.087-6.277 1.836-1.428 4.132-1.921 6.464-1.389 5.109 1.169 23.08 9.786 27.574 11.962v7.856c-4.334-2.766-12.62-5.178-15.762-6.031l-.438 1.614c6.625 1.799 13.608 4.453 16.199 6.362v2.613c-2.592 1.925-9.576 4.619-16.204 6.455l.447 1.612c3.14-.87 11.424-3.327 15.757-6.115v7.936c-4.495 2.178-22.465 10.793-27.573 11.964zm89.009-1.388c-1.838 1.428-4.132 1.924-6.462 1.388-5.109-1.171-23.079-9.786-27.575-11.962v-7.834c4.375 2.746 12.495 5.153 15.597 6.013l.447-1.612c-6.499-1.8-13.336-4.424-16.044-6.341v-2.84c2.707-1.9 9.543-4.485 16.039-6.25l-.438-1.614c-3.103.842-11.226 3.206-15.602 5.929v-7.754c4.494-2.176 22.464-10.793 27.574-11.962 2.327-.533 4.625-.041 6.464 1.389 1.896 1.474 3.02 3.76 3.087 6.276l.001 30.875c-.061 2.526-1.187 4.822-3.088 6.299z" data-color="1" class="aIptOCySncolors-0"></path></g></g>
</svg>
</g><g opacity="1" transform="rotate(0 529.3672 424.0967)">
<svg width="358.2655" height="16.8122" x="529.3672" y="424.0967" version="1.1" preserveAspectRatio="none" viewBox="1.4 -35.56 952.12 44.68">
  <g transform="matrix(1 0 0 1 0 0)" class="a6izo4zJpcolor"><path id="id-6izo4zJp39" d="M12.44 0.40Q9.20 0.40 6.18-0.52Q3.16-1.44 1.40-2.96L1.40-2.96L3.20-7Q4.92-5.64 7.42-4.78Q9.92-3.92 12.44-3.92L12.44-3.92Q15.56-3.92 17.10-4.92Q18.64-5.92 18.64-7.56L18.64-7.56Q18.64-8.76 17.78-9.54Q16.92-10.32 15.60-10.76Q14.28-11.20 12-11.76L12-11.76Q8.80-12.52 6.82-13.28Q4.84-14.04 3.42-15.66Q2-17.28 2-20.04L2-20.04Q2-22.36 3.26-24.26Q4.52-26.16 7.06-27.28Q9.60-28.40 13.28-28.40L13.28-28.40Q15.84-28.40 18.32-27.76Q20.80-27.12 22.60-25.92L22.60-25.92L20.96-21.88Q19.12-22.96 17.12-23.52Q15.12-24.08 13.24-24.08L13.24-24.08Q10.16-24.08 8.66-23.04Q7.16-22 7.16-20.28L7.16-20.28Q7.16-19.08 8.02-18.32Q8.88-17.56 10.20-17.12Q11.52-16.68 13.80-16.12L13.80-16.12Q16.92-15.40 18.92-14.62Q20.92-13.84 22.34-12.24Q23.76-10.64 23.76-7.92L23.76-7.92Q23.76-5.60 22.50-3.72Q21.24-1.84 18.68-0.72Q16.12 0.40 12.44 0.40L12.44 0.40Z M40.60-21.60Q45.32-21.60 47.82-19.34Q50.32-17.08 50.32-12.52L50.32-12.52L50.32 0L45.60 0L45.60-2.60Q44.68-1.20 42.98-0.46Q41.28 0.28 38.88 0.28L38.88 0.28Q36.48 0.28 34.68-0.54Q32.88-1.36 31.90-2.82Q30.92-4.28 30.92-6.12L30.92-6.12Q30.92-9 33.06-10.74Q35.20-12.48 39.80-12.48L39.80-12.48L45.32-12.48L45.32-12.80Q45.32-15.04 43.98-16.24Q42.64-17.44 40-17.44L40-17.44Q38.20-17.44 36.46-16.88Q34.72-16.32 33.52-15.32L33.52-15.32L31.56-18.96Q33.24-20.24 35.60-20.92Q37.96-21.60 40.60-21.60L40.60-21.60ZM39.92-3.36Q41.80-3.36 43.26-4.22Q44.72-5.08 45.32-6.68L45.32-6.68L45.32-9.16L40.16-9.16Q35.84-9.16 35.84-6.32L35.84-6.32Q35.84-4.96 36.92-4.16Q38-3.36 39.92-3.36L39.92-3.36Z M72.84-21.60Q76.88-21.60 79.32-19.24Q81.76-16.88 81.76-12.24L81.76-12.24L81.76 0L76.76 0L76.76-11.60Q76.76-14.40 75.44-15.82Q74.12-17.24 71.68-17.24L71.68-17.24Q68.92-17.24 67.32-15.58Q65.72-13.92 65.72-10.80L65.72-10.80L65.72 0L60.72 0L60.72-21.36L65.48-21.36L65.48-18.60Q66.72-20.08 68.60-20.84Q70.48-21.60 72.84-21.60L72.84-21.60Z M100.28-21.60Q105-21.60 107.50-19.34Q110-17.08 110-12.52L110-12.52L110 0L105.28 0L105.28-2.60Q104.36-1.20 102.66-0.46Q100.96 0.28 98.56 0.28L98.56 0.28Q96.16 0.28 94.36-0.54Q92.56-1.36 91.58-2.82Q90.60-4.28 90.60-6.12L90.60-6.12Q90.60-9 92.74-10.74Q94.88-12.48 99.48-12.48L99.48-12.48L105-12.48L105-12.80Q105-15.04 103.66-16.24Q102.32-17.44 99.68-17.44L99.68-17.44Q97.88-17.44 96.14-16.88Q94.40-16.32 93.20-15.32L93.20-15.32L91.24-18.96Q92.92-20.24 95.28-20.92Q97.64-21.60 100.28-21.60L100.28-21.60ZM99.60-3.36Q101.48-3.36 102.94-4.22Q104.40-5.08 105-6.68L105-6.68L105-9.16L99.84-9.16Q95.52-9.16 95.52-6.32L95.52-6.32Q95.52-4.96 96.60-4.16Q97.68-3.36 99.60-3.36L99.60-3.36Z M149 0.40Q144.72 0.40 141.28-1.46Q137.84-3.32 135.88-6.62Q133.92-9.92 133.92-14L133.92-14Q133.92-18.08 135.88-21.38Q137.84-24.68 141.28-26.54Q144.72-28.40 149-28.40L149-28.40Q153.28-28.40 156.72-26.54Q160.16-24.68 162.12-21.40Q164.08-18.12 164.08-14L164.08-14Q164.08-9.88 162.12-6.60Q160.16-3.32 156.72-1.46Q153.28 0.40 149 0.40L149 0.40ZM149-4.16Q151.80-4.16 154.04-5.42Q156.28-6.68 157.56-8.94Q158.84-11.20 158.84-14L158.84-14Q158.84-16.80 157.56-19.06Q156.28-21.32 154.04-22.58Q151.80-23.84 149-23.84L149-23.84Q146.20-23.84 143.96-22.58Q141.72-21.32 140.44-19.06Q139.16-16.80 139.16-14L139.16-14Q139.16-11.20 140.44-8.94Q141.72-6.68 143.96-5.42Q146.20-4.16 149-4.16L149-4.16ZM145.12-30.72Q144.08-30.72 143.40-31.40Q142.72-32.08 142.72-33.12L142.72-33.12Q142.72-34.20 143.40-34.88Q144.08-35.56 145.12-35.56L145.12-35.56Q146.16-35.56 146.84-34.88Q147.52-34.20 147.52-33.12L147.52-33.12Q147.52-32.08 146.84-31.40Q146.16-30.72 145.12-30.72L145.12-30.72ZM152.88-30.72Q151.84-30.72 151.16-31.40Q150.48-32.08 150.48-33.12L150.48-33.12Q150.48-34.20 151.16-34.88Q151.84-35.56 152.88-35.56L152.88-35.56Q153.92-35.56 154.60-34.88Q155.28-34.20 155.28-33.12L155.28-33.12Q155.28-32.08 154.60-31.40Q153.92-30.72 152.88-30.72L152.88-30.72Z M177.72-4L189.80-4L189.80 0L171.36 0L171.36-3.16L183.08-17.36L171.60-17.36L171.60-21.36L189.48-21.36L189.48-18.20L177.72-4Z M218.16-10.56Q218.16-10.04 218.08-9.08L218.08-9.08L201.32-9.08Q201.76-6.72 203.62-5.34Q205.48-3.96 208.24-3.96L208.24-3.96Q211.76-3.96 214.04-6.28L214.04-6.28L216.72-3.20Q215.28-1.48 213.08-0.60Q210.88 0.28 208.12 0.28L208.12 0.28Q204.60 0.28 201.92-1.12Q199.24-2.52 197.78-5.02Q196.32-7.52 196.32-10.68L196.32-10.68Q196.32-13.80 197.74-16.30Q199.16-18.80 201.68-20.20Q204.20-21.60 207.36-21.60L207.36-21.60Q210.48-21.60 212.94-20.22Q215.40-18.84 216.78-16.34Q218.16-13.84 218.16-10.56L218.16-10.56ZM207.36-17.60Q204.96-17.60 203.30-16.18Q201.64-14.76 201.28-12.40L201.28-12.40L213.40-12.40Q213.08-14.72 211.44-16.16Q209.80-17.60 207.36-17.60L207.36-17.60Z M226.96 0L226.96-29.68L231.96-29.68L231.96 0L226.96 0Z M281.08-28L270.12-9.88L270.12 0L264.92 0L264.92-9.80L253.92-28L259.48-28L267.68-14.36L275.96-28L281.08-28Z M305.68-10.56Q305.68-10.04 305.60-9.08L305.60-9.08L288.84-9.08Q289.28-6.72 291.14-5.34Q293.00-3.96 295.76-3.96L295.76-3.96Q299.28-3.96 301.56-6.28L301.56-6.28L304.24-3.20Q302.80-1.48 300.60-0.60Q298.40 0.28 295.64 0.28L295.64 0.28Q292.12 0.28 289.44-1.12Q286.76-2.52 285.30-5.02Q283.84-7.52 283.84-10.68L283.84-10.68Q283.84-13.80 285.26-16.30Q286.68-18.80 289.20-20.20Q291.72-21.60 294.88-21.60L294.88-21.60Q298.00-21.60 300.46-20.22Q302.92-18.84 304.30-16.34Q305.68-13.84 305.68-10.56L305.68-10.56ZM294.88-17.60Q292.48-17.60 290.82-16.18Q289.16-14.76 288.80-12.40L288.80-12.40L300.92-12.40Q300.60-14.72 298.96-16.16Q297.32-17.60 294.88-17.60L294.88-17.60Z M326.60-21.60Q330.64-21.60 333.08-19.24Q335.52-16.88 335.52-12.24L335.52-12.24L335.52 0L330.52 0L330.52-11.60Q330.52-14.40 329.20-15.82Q327.88-17.24 325.44-17.24L325.44-17.24Q322.68-17.24 321.08-15.58Q319.48-13.92 319.48-10.80L319.48-10.80L319.48 0L314.48 0L314.48-21.36L319.24-21.36L319.24-18.60Q320.48-20.08 322.36-20.84Q324.24-21.60 326.60-21.60L326.60-21.60Z M345.88 0L345.88-21.36L350.88-21.36L350.88 0L345.88 0ZM348.40-24.88Q347.04-24.88 346.12-25.74Q345.20-26.60 345.20-27.88L345.20-27.88Q345.20-29.16 346.12-30.02Q347.04-30.88 348.40-30.88L348.40-30.88Q349.76-30.88 350.68-30.06Q351.60-29.24 351.60-28L351.60-28Q351.60-26.68 350.70-25.78Q349.80-24.88 348.40-24.88L348.40-24.88Z M396.68-28L401.84-28L401.84 0L397.56 0L382.12-18.96L382.12 0L376.96 0L376.96-28L381.24-28L396.68-9.04L396.68-28Z M432.96-10.56Q432.96-10.04 432.88-9.08L432.88-9.08L416.12-9.08Q416.56-6.72 418.42-5.34Q420.28-3.96 423.04-3.96L423.04-3.96Q426.56-3.96 428.84-6.28L428.84-6.28L431.52-3.20Q430.08-1.48 427.88-0.60Q425.68 0.28 422.92 0.28L422.92 0.28Q419.40 0.28 416.72-1.12Q414.04-2.52 412.58-5.02Q411.12-7.52 411.12-10.68L411.12-10.68Q411.12-13.80 412.54-16.30Q413.96-18.80 416.48-20.20Q419-21.60 422.16-21.60L422.16-21.60Q425.28-21.60 427.74-20.22Q430.20-18.84 431.58-16.34Q432.96-13.84 432.96-10.56L432.96-10.56ZM422.16-17.60Q419.76-17.60 418.10-16.18Q416.44-14.76 416.08-12.40L416.08-12.40L428.20-12.40Q427.88-14.72 426.24-16.16Q424.60-17.60 422.16-17.60L422.16-17.60Z M448.36 0.28Q445.76 0.28 443.28-0.40Q440.80-1.08 439.32-2.12L439.32-2.12L441.24-5.92Q442.68-4.96 444.70-4.38Q446.72-3.80 448.68-3.80L448.68-3.80Q453.16-3.80 453.16-6.16L453.16-6.16Q453.16-7.28 452.02-7.72Q450.88-8.16 448.36-8.56L448.36-8.56Q445.72-8.96 444.06-9.48Q442.40-10 441.18-11.30Q439.96-12.60 439.96-14.92L439.96-14.92Q439.96-17.96 442.50-19.78Q445.04-21.60 449.36-21.60L449.36-21.60Q451.56-21.60 453.76-21.10Q455.96-20.60 457.36-19.76L457.36-19.76L455.44-15.96Q452.72-17.56 449.32-17.56L449.32-17.56Q447.12-17.56 445.98-16.90Q444.84-16.24 444.84-15.16L444.84-15.16Q444.84-13.96 446.06-13.46Q447.28-12.96 449.84-12.52L449.84-12.52Q452.40-12.12 454.04-11.60Q455.68-11.08 456.86-9.84Q458.04-8.60 458.04-6.32L458.04-6.32Q458.04-3.32 455.44-1.52Q452.84 0.28 448.36 0.28L448.36 0.28Z M466.36 0L466.36-21.36L471.36-21.36L471.36 0L466.36 0ZM468.88-24.88Q467.52-24.88 466.60-25.74Q465.68-26.60 465.68-27.88L465.68-27.88Q465.68-29.16 466.60-30.02Q467.52-30.88 468.88-30.88L468.88-30.88Q470.24-30.88 471.16-30.06Q472.08-29.24 472.08-28L472.08-28Q472.08-26.68 471.18-25.78Q470.28-24.88 468.88-24.88L468.88-24.88Z M481.92 0L481.92-29.68L486.92-29.68L486.92 0L481.92 0Z M533.96 0L531.16-6.48L517.16-6.48L514.40 0L509.04 0L521.64-28L526.76-28L539.40 0L533.96 0ZM518.92-10.56L529.44-10.56L524.16-22.80L518.92-10.56Z M546.48 0L546.48-29.68L551.48-29.68L551.48 0L546.48 0Z M562.04 0L562.04-21.36L567.04-21.36L567.04 0L562.04 0Z M584.20 0.28Q581.60 0.28 579.12-0.40Q576.64-1.08 575.16-2.12L575.16-2.12L577.08-5.92Q578.52-4.96 580.54-4.38Q582.56-3.80 584.52-3.80L584.52-3.80Q589.00-3.80 589.00-6.16L589.00-6.16Q589.00-7.28 587.86-7.72Q586.72-8.16 584.20-8.56L584.20-8.56Q581.56-8.96 579.90-9.48Q578.24-10 577.02-11.30Q575.80-12.60 575.80-14.92L575.80-14.92Q575.80-17.96 578.34-19.78Q580.88-21.60 585.20-21.60L585.20-21.60Q587.40-21.60 589.60-21.10Q591.80-20.60 593.20-19.76L593.20-19.76L591.28-15.96Q588.56-17.56 585.16-17.56L585.16-17.56Q582.96-17.56 581.82-16.90Q580.68-16.24 580.68-15.16L580.68-15.16Q580.68-13.96 581.90-13.46Q583.12-12.96 585.68-12.52L585.68-12.52Q588.24-12.12 589.88-11.60Q591.52-11.08 592.70-9.84Q593.88-8.60 593.88-6.32L593.88-6.32Q593.88-3.32 591.28-1.52Q588.68 0.28 584.20 0.28L584.20 0.28ZM583.32 9.12Q581.16 9.12 579.64 8.28L579.64 8.28L580.56 5.92Q581.80 6.56 583.28 6.56L583.28 6.56Q585.40 6.56 585.40 5.12L585.40 5.12Q585.40 4.52 584.88 4.16Q584.36 3.80 583.28 3.80L583.28 3.80L582.04 3.80L583.12-0.28L585.84-0.28L585.28 1.96Q587.00 2.16 587.88 3.06Q588.76 3.96 588.76 5.32L588.76 5.32Q588.76 7.04 587.28 8.08Q585.80 9.12 583.32 9.12L583.32 9.12Z M617-21.36L621.80-21.36L612.64 0L607.48 0L598.32-21.36L603.52-21.36L610.16-5.52L617-21.36Z M648.40-10.56Q648.40-10.04 648.32-9.08L648.32-9.08L631.56-9.08Q632-6.72 633.86-5.34Q635.72-3.96 638.48-3.96L638.48-3.96Q642-3.96 644.28-6.28L644.28-6.28L646.96-3.20Q645.52-1.48 643.32-0.60Q641.12 0.28 638.36 0.28L638.36 0.28Q634.84 0.28 632.16-1.12Q629.48-2.52 628.02-5.02Q626.56-7.52 626.56-10.68L626.56-10.68Q626.56-13.80 627.98-16.30Q629.40-18.80 631.92-20.20Q634.44-21.60 637.60-21.60L637.60-21.60Q640.72-21.60 643.18-20.22Q645.64-18.84 647.02-16.34Q648.40-13.84 648.40-10.56L648.40-10.56ZM637.60-17.60Q635.20-17.60 633.54-16.18Q631.88-14.76 631.52-12.40L631.52-12.40L643.64-12.40Q643.32-14.72 641.68-16.16Q640.04-17.60 637.60-17.60L637.60-17.60Z M661.96-18.24Q664.12-21.60 669.56-21.60L669.56-21.60L669.56-16.84Q668.92-16.96 668.40-16.96L668.40-16.96Q665.48-16.96 663.84-15.26Q662.20-13.56 662.20-10.36L662.20-10.36L662.20 0L657.20 0L657.20-21.36L661.96-21.36L661.96-18.24Z M677.80 0L677.80-21.36L682.80-21.36L682.80 0L677.80 0ZM680.32-24.88Q678.96-24.88 678.04-25.74Q677.12-26.60 677.12-27.88L677.12-27.88Q677.12-29.16 678.04-30.02Q678.96-30.88 680.32-30.88L680.32-30.88Q681.68-30.88 682.60-30.06Q683.52-29.24 683.52-28L683.52-28Q683.52-26.68 682.62-25.78Q681.72-24.88 680.32-24.88L680.32-24.88Z M699.96 0.28Q697.36 0.28 694.88-0.40Q692.40-1.08 690.92-2.12L690.92-2.12L692.84-5.92Q694.28-4.96 696.30-4.38Q698.32-3.80 700.28-3.80L700.28-3.80Q704.76-3.80 704.76-6.16L704.76-6.16Q704.76-7.28 703.62-7.72Q702.48-8.16 699.96-8.56L699.96-8.56Q697.32-8.96 695.66-9.48Q694.00-10 692.78-11.30Q691.56-12.60 691.56-14.92L691.56-14.92Q691.56-17.96 694.10-19.78Q696.64-21.60 700.96-21.60L700.96-21.60Q703.16-21.60 705.36-21.10Q707.56-20.60 708.96-19.76L708.96-19.76L707.04-15.96Q704.32-17.56 700.92-17.56L700.92-17.56Q698.72-17.56 697.58-16.90Q696.44-16.24 696.44-15.16L696.44-15.16Q696.44-13.96 697.66-13.46Q698.88-12.96 701.44-12.52L701.44-12.52Q704.00-12.12 705.64-11.60Q707.28-11.08 708.46-9.84Q709.64-8.60 709.64-6.32L709.64-6.32Q709.64-3.32 707.04-1.52Q704.44 0.28 699.96 0.28L699.96 0.28ZM699.08 9.12Q696.92 9.12 695.40 8.28L695.40 8.28L696.32 5.92Q697.56 6.56 699.04 6.56L699.04 6.56Q701.16 6.56 701.16 5.12L701.16 5.12Q701.16 4.52 700.64 4.16Q700.12 3.80 699.04 3.80L699.04 3.80L697.80 3.80L698.88-0.28L701.60-0.28L701.04 1.96Q702.76 2.16 703.64 3.06Q704.52 3.96 704.52 5.32L704.52 5.32Q704.52 7.04 703.04 8.08Q701.56 9.12 699.08 9.12L699.08 9.12Z M733.48 0L733.48-28L745.72-28Q750.20-28 753.68-26.26Q757.16-24.52 759.08-21.34Q761.00-18.16 761.00-14L761.00-14Q761.00-9.84 759.08-6.66Q757.16-3.48 753.68-1.74Q750.20 0 745.72 0L745.72 0L733.48 0ZM738.68-4.40L745.48-4.40Q748.56-4.40 750.90-5.58Q753.24-6.76 754.50-8.94Q755.76-11.12 755.76-14L755.76-14Q755.76-16.88 754.50-19.06Q753.24-21.24 750.90-22.42Q748.56-23.60 745.48-23.60L745.48-23.60L738.68-23.60L738.68-4.40Z M790.12-10.56Q790.12-10.04 790.04-9.08L790.04-9.08L773.28-9.08Q773.72-6.72 775.58-5.34Q777.44-3.96 780.20-3.96L780.20-3.96Q783.72-3.96 786.00-6.28L786.00-6.28L788.68-3.20Q787.24-1.48 785.04-0.60Q782.84 0.28 780.08 0.28L780.08 0.28Q776.56 0.28 773.88-1.12Q771.20-2.52 769.74-5.02Q768.28-7.52 768.28-10.68L768.28-10.68Q768.28-13.80 769.70-16.30Q771.12-18.80 773.64-20.20Q776.16-21.60 779.32-21.60L779.32-21.60Q782.44-21.60 784.90-20.22Q787.36-18.84 788.74-16.34Q790.12-13.84 790.12-10.56L790.12-10.56ZM779.32-17.60Q776.92-17.60 775.26-16.18Q773.60-14.76 773.24-12.40L773.24-12.40L785.36-12.40Q785.04-14.72 783.40-16.16Q781.76-17.60 779.32-17.60L779.32-17.60Z M811.04-21.60Q815.08-21.60 817.52-19.24Q819.96-16.88 819.96-12.24L819.96-12.24L819.96 0L814.96 0L814.96-11.60Q814.96-14.40 813.64-15.82Q812.32-17.24 809.88-17.24L809.88-17.24Q807.12-17.24 805.52-15.58Q803.92-13.92 803.92-10.80L803.92-10.80L803.92 0L798.92 0L798.92-21.36L803.68-21.36L803.68-18.60Q804.92-20.08 806.80-20.84Q808.68-21.60 811.04-21.60L811.04-21.60Z M850.60-10.56Q850.60-10.04 850.52-9.08L850.52-9.08L833.76-9.08Q834.20-6.72 836.06-5.34Q837.92-3.96 840.68-3.96L840.68-3.96Q844.20-3.96 846.48-6.28L846.48-6.28L849.16-3.20Q847.72-1.48 845.52-0.60Q843.32 0.28 840.56 0.28L840.56 0.28Q837.04 0.28 834.36-1.12Q831.68-2.52 830.22-5.02Q828.76-7.52 828.76-10.68L828.76-10.68Q828.76-13.80 830.18-16.30Q831.60-18.80 834.12-20.20Q836.64-21.60 839.80-21.60L839.80-21.60Q842.92-21.60 845.38-20.22Q847.84-18.84 849.22-16.34Q850.60-13.84 850.60-10.56L850.60-10.56ZM839.80-17.60Q837.40-17.60 835.74-16.18Q834.08-14.76 833.72-12.40L833.72-12.40L845.84-12.40Q845.52-14.72 843.88-16.16Q842.24-17.60 839.80-17.60L839.80-17.60Z M874.20-21.36L879.00-21.36L869.00 1.72Q867.60 5.20 865.60 6.62Q863.60 8.04 860.76 8.04L860.76 8.04Q859.16 8.04 857.60 7.52Q856.04 7 855.04 6.08L855.04 6.08L857.04 2.40Q857.76 3.08 858.74 3.48Q859.72 3.88 860.72 3.88L860.72 3.88Q862.04 3.88 862.90 3.20Q863.76 2.52 864.48 0.92L864.48 0.92L864.84 0.08L855.52-21.36L860.72-21.36L867.44-5.56L874.20-21.36Z M886.12 0L886.12-21.36L891.12-21.36L891.12 0L886.12 0ZM888.64-24.88Q887.28-24.88 886.36-25.74Q885.44-26.60 885.44-27.88L885.44-27.88Q885.44-29.16 886.36-30.02Q887.28-30.88 888.64-30.88L888.64-30.88Q890.00-30.88 890.92-30.06Q891.84-29.24 891.84-28L891.84-28Q891.84-26.68 890.94-25.78Q890.04-24.88 888.64-24.88L888.64-24.88Z M928.64-21.60Q932.68-21.60 935.04-19.26Q937.40-16.92 937.40-12.24L937.40-12.24L937.40 0L932.40 0L932.40-11.60Q932.40-14.40 931.16-15.82Q929.92-17.24 927.60-17.24L927.60-17.24Q925.08-17.24 923.56-15.58Q922.04-13.92 922.04-10.84L922.04-10.84L922.04 0L917.04 0L917.04-11.60Q917.04-14.40 915.80-15.82Q914.56-17.24 912.24-17.24L912.24-17.24Q909.68-17.24 908.18-15.60Q906.68-13.96 906.68-10.84L906.68-10.84L906.68 0L901.68 0L901.68-21.36L906.44-21.36L906.44-18.64Q907.64-20.08 909.44-20.84Q911.24-21.60 913.44-21.60L913.44-21.60Q915.84-21.60 917.70-20.70Q919.56-19.80 920.64-18.04L920.64-18.04Q921.96-19.72 924.04-20.66Q926.12-21.60 928.64-21.60L928.64-21.60Z M947.80 0L947.80-21.36L952.80-21.36L952.80 0L947.80 0ZM950.32-24.88Q948.96-24.88 948.04-25.74Q947.12-26.60 947.12-27.88L947.12-27.88Q947.12-29.16 948.04-30.02Q948.96-30.88 950.32-30.88L950.32-30.88Q951.68-30.88 952.60-30.06Q953.52-29.24 953.52-28L953.52-28Q953.52-26.68 952.62-25.78Q951.72-24.88 950.32-24.88L950.32-24.88Z"/></g>
</svg>
</g><g opacity="1" transform="rotate(0 645.2215 349.2189)">
<svg width="253.2785" height="49.4476" x="645.2215" y="349.2189" version="1.1" preserveAspectRatio="none" viewBox="3.32 -31.48 162.88 31.8">
  <g transform="matrix(1 0 0 1 0 0)" class="aD6z1nYkhcolor"><path id="id-D6z1nYkh8" d="M34.88 0L28.80 0L28.76-16.80L20.52-2.96L17.60-2.96L9.40-16.44L9.40 0L3.32 0L3.32-28L8.68-28L19.16-10.60L29.48-28L34.80-28L34.88 0Z M51.32 0.32Q47.92 0.32 45.22-1.10Q42.52-2.52 41-5.04Q39.48-7.56 39.48-10.76L39.48-10.76Q39.48-13.96 41-16.48Q42.52-19 45.22-20.42Q47.92-21.84 51.32-21.84L51.32-21.84Q54.72-21.84 57.40-20.42Q60.08-19 61.60-16.48Q63.12-13.96 63.12-10.76L63.12-10.76Q63.12-7.56 61.60-5.04Q60.08-2.52 57.40-1.10Q54.72 0.32 51.32 0.32L51.32 0.32ZM51.32-4.80Q53.72-4.80 55.26-6.42Q56.80-8.04 56.80-10.76L56.80-10.76Q56.80-13.48 55.26-15.10Q53.72-16.72 51.32-16.72L51.32-16.72Q48.92-16.72 47.36-15.10Q45.80-13.48 45.80-10.76L45.80-10.76Q45.80-8.04 47.36-6.42Q48.92-4.80 51.32-4.80L51.32-4.80Z M82.96-29.68L89.20-29.68L89.20 0L83.24 0L83.24-2.48Q80.92 0.32 76.52 0.32L76.52 0.32Q73.48 0.32 71.02-1.04Q68.56-2.40 67.16-4.92Q65.76-7.44 65.76-10.76L65.76-10.76Q65.76-14.08 67.16-16.60Q68.56-19.12 71.02-20.48Q73.48-21.84 76.52-21.84L76.52-21.84Q80.64-21.84 82.96-19.24L82.96-19.24L82.96-29.68ZM77.60-4.80Q79.96-4.80 81.52-6.42Q83.08-8.04 83.08-10.76L83.08-10.76Q83.08-13.48 81.52-15.10Q79.96-16.72 77.60-16.72L77.60-16.72Q75.20-16.72 73.64-15.10Q72.08-13.48 72.08-10.76L72.08-10.76Q72.08-8.04 73.64-6.42Q75.20-4.80 77.60-4.80L77.60-4.80Z M94.96 0L94.96-21.52L101.20-21.52L101.20 0L94.96 0ZM98.08-24.52Q96.36-24.52 95.28-25.52Q94.20-26.52 94.20-28L94.20-28Q94.20-29.48 95.28-30.48Q96.36-31.48 98.08-31.48L98.08-31.48Q99.80-31.48 100.88-30.52Q101.96-29.56 101.96-28.12L101.96-28.12Q101.96-26.56 100.88-25.54Q99.80-24.52 98.08-24.52L98.08-24.52Z M107.00 0L107.00-29.68L113.24-29.68L113.24 0L107.00 0Z M119.04 0L119.04-21.52L125.28-21.52L125.28 0L119.04 0ZM122.16-24.52Q120.44-24.52 119.36-25.52Q118.28-26.52 118.28-28L118.28-28Q118.28-29.48 119.36-30.48Q120.44-31.48 122.16-31.48L122.16-31.48Q123.88-31.48 124.96-30.52Q126.04-29.56 126.04-28.12L126.04-28.12Q126.04-26.56 124.96-25.54Q123.88-24.52 122.16-24.52L122.16-24.52Z M138.32 0.32Q135.64 0.32 133.08-0.34Q130.52-1 129.00-2L129.00-2L131.08-6.48Q132.52-5.56 134.56-4.98Q136.60-4.40 138.56-4.40L138.56-4.40Q142.52-4.40 142.52-6.36L142.52-6.36Q142.52-7.28 141.44-7.68Q140.36-8.08 138.12-8.36L138.12-8.36Q135.48-8.76 133.76-9.28Q132.04-9.80 130.78-11.12Q129.52-12.44 129.52-14.88L129.52-14.88Q129.52-16.92 130.70-18.50Q131.88-20.08 134.14-20.96Q136.40-21.84 139.48-21.84L139.48-21.84Q141.76-21.84 144.02-21.34Q146.28-20.84 147.76-19.96L147.76-19.96L145.68-15.52Q142.84-17.12 139.48-17.12L139.48-17.12Q137.48-17.12 136.48-16.56Q135.48-16 135.48-15.12L135.48-15.12Q135.48-14.12 136.56-13.72Q137.64-13.32 140.00-12.96L140.00-12.96Q142.64-12.52 144.32-12.02Q146.00-11.52 147.24-10.20Q148.48-8.88 148.48-6.52L148.48-6.52Q148.48-4.52 147.28-2.96Q146.08-1.40 143.78-0.54Q141.48 0.32 138.32 0.32L138.32 0.32Z M164.52-5.44L166.20-1.04Q165.28-0.36 163.94-0.02Q162.60 0.32 161.12 0.32L161.12 0.32Q157.28 0.32 155.18-1.64Q153.08-3.60 153.08-7.40L153.08-7.40L153.08-16.24L149.76-16.24L149.76-21.04L153.08-21.04L153.08-26.28L159.32-26.28L159.32-21.04L164.68-21.04L164.68-16.24L159.32-16.24L159.32-7.48Q159.32-6.12 160.02-5.38Q160.72-4.64 162.00-4.64L162.00-4.64Q163.48-4.64 164.52-5.44L164.52-5.44Z"/></g>
</svg>
</g><g opacity="1" transform="rotate(0 631.0936 335.091)">
<svg width="2.8256" height="77.7034" x="631.0936" y="335.091" version="1.1" preserveAspectRatio="none" viewBox="0 0 2.8256 77.7034">
  <rect x="0" y="0" width="2.8256" height="77.7034" class="atBXipXk0bfillColor shapeStroke-str" style="stroke-width:0;" rx="0px" ry="0px" />
</svg>
</g></svg>