<?xml version="1.0" encoding="utf-8"?>
<!-- Generator: Adobe Illustrator 19.0.0, SVG Export Plug-In . SVG Version: 6.00 Build 0)  -->
<svg version="1.1" id="Layer_1" xmlns="http://www.w3.org/2000/svg" xmlns:xlink="http://www.w3.org/1999/xlink" x="0px" y="0px"
	 viewBox="0 0 595.3 285.2" style="enable-background:new 0 0 595.3 285.2;" xml:space="preserve">
<style type="text/css">
	.st0{fill:#FFFFFF;}
</style>
<g id="XMLID_207_">
	<g id="XMLID_239_">
		<path id="XMLID_97_" class="st0" d="M222.2,198.8c-4.7-2.5-8.4-6.1-11.1-10.8c-2.7-4.7-4-10.1-4-16.4c0-6.2,1.4-11.6,4.1-16.3
			c2.7-4.7,6.5-8.3,11.2-10.8c4.7-2.5,10.1-3.8,15.9-3.8c5.9,0,11.2,1.3,15.9,3.8c4.7,2.5,8.5,6.1,11.2,10.8
			c2.7,4.7,4.1,10.1,4.1,16.3c0,6.2-1.4,11.6-4.1,16.3c-2.8,4.7-6.5,8.3-11.3,10.8s-10.1,3.8-16,3.8
			C232.2,202.6,226.9,201.4,222.2,198.8z M247.1,182.8c2.5-2.6,3.7-6.3,3.7-11.1s-1.2-8.5-3.6-11.1s-5.4-3.9-8.9-3.9
			c-3.6,0-6.6,1.3-8.9,3.8c-2.4,2.6-3.6,6.3-3.6,11.2c0,4.8,1.2,8.5,3.5,11.1s5.3,3.9,8.8,3.9S244.6,185.4,247.1,182.8z"/>
	</g>
	<g id="XMLID_236_">
		<path id="XMLID_93_" class="st0" d="M279.2,155.3c2.3-4.7,5.5-8.3,9.5-10.8s8.5-3.8,13.5-3.8c3.9,0,7.6,0.8,10.8,2.5
			c3.3,1.7,5.8,3.9,7.7,6.7V122h18.4v79.7h-18.4v-8.6c-1.7,2.9-4.2,5.2-7.4,6.9c-3.2,1.7-6.9,2.6-11.2,2.6c-5,0-9.4-1.3-13.5-3.8
			c-4-2.5-7.2-6.2-9.5-10.9c-2.3-4.7-3.5-10.1-3.5-16.3C275.7,165.4,276.9,160,279.2,155.3z M316.9,160.8c-2.6-2.7-5.7-4-9.3-4
			c-3.7,0-6.8,1.3-9.3,3.9c-2.6,2.6-3.8,6.2-3.8,10.8c0,4.6,1.3,8.2,3.8,10.9c2.5,2.7,5.7,4,9.3,4c3.7,0,6.8-1.3,9.3-4
			s3.8-6.3,3.8-10.9C320.7,167.1,319.5,163.5,316.9,160.8z"/>
	</g>
	<g id="XMLID_233_">
		<path id="XMLID_89_" class="st0" d="M350.3,132.5c-2-1.9-3.1-4.3-3.1-7.1c0-2.9,1-5.3,3.1-7.2c2-1.9,4.7-2.9,7.9-2.9
			c3.2,0,5.8,1,7.8,2.9c2,1.9,3.1,4.3,3.1,7.2c0,2.8-1,5.2-3.1,7.1c-2,1.9-4.7,2.9-7.8,2.9C355,135.4,352.3,134.4,350.3,132.5z
			 M367.4,141.6v60.1H349v-60.1H367.4z"/>
	</g>
	<g id="XMLID_231_">
		<path id="XMLID_87_" class="st0" d="M395.6,122v79.7h-18.4V122L395.6,122L395.6,122z"/>
	</g>
	<g id="XMLID_228_">
		<path id="XMLID_83_" class="st0" d="M406.7,132.5c-2-1.9-3.1-4.3-3.1-7.1c0-2.9,1-5.3,3.1-7.2c2-1.9,4.7-2.9,7.9-2.9
			c3.2,0,5.8,1,7.8,2.9c2,1.9,3.1,4.3,3.1,7.2c0,2.8-1,5.2-3.1,7.1c-2,1.9-4.7,2.9-7.8,2.9C411.4,135.4,408.8,134.4,406.7,132.5z
			 M423.8,141.6v60.1h-18.4v-60.1H423.8z"/>
	</g>
	<g id="XMLID_226_">
		<path id="XMLID_81_" class="st0" d="M442.3,199.9c-4.1-1.8-7.3-4.3-9.7-7.4c-2.4-3.1-3.7-6.6-4-10.5h18.2c0.2,2.1,1.2,3.8,2.9,5.1
			s3.8,1.9,6.4,1.9c2.3,0,4.1-0.4,5.3-1.3c1.3-0.9,1.9-2.1,1.9-3.5c0-1.7-0.9-3-2.7-3.8c-1.8-0.8-4.7-1.7-8.7-2.7
			c-4.3-1-7.9-2.1-10.8-3.2s-5.4-2.9-7.4-5.3c-2.1-2.4-3.1-5.7-3.1-9.8c0-3.4,1-6.6,2.9-9.4s4.7-5.1,8.4-6.7
			c3.7-1.7,8.1-2.5,13.2-2.5c7.5,0,13.5,1.9,17.8,5.6s6.8,8.7,7.5,14.9h-17c-0.3-2.1-1.2-3.7-2.7-5c-1.5-1.2-3.6-1.8-6.1-1.8
			c-2.2,0-3.8,0.4-5,1.2c-1.1,0.8-1.7,2-1.7,3.4c0,1.7,0.9,3,2.7,3.9s4.7,1.7,8.6,2.6c4.5,1.2,8.1,2.3,10.9,3.4s5.3,2.9,7.4,5.4
			s3.2,5.8,3.3,10c0,3.5-1,6.7-3,9.4c-2,2.8-4.8,4.9-8.5,6.5s-8,2.4-12.9,2.4C451.1,202.6,446.4,201.7,442.3,199.9z"/>
	</g>
	<g id="XMLID_224_">
		<path id="XMLID_79_" class="st0" d="M523.7,186.1v15.6h-9.4c-6.7,0-11.9-1.6-15.6-4.9c-3.7-3.3-5.6-8.6-5.6-16v-23.9h-7.3v-15.3
			h7.3v-14.7h18.4v14.7h12.1v15.3h-12.1v24.2c0,1.8,0.4,3.1,1.3,3.9c0.9,0.8,2.3,1.2,4.3,1.2h6.6V186.1z"/>
	</g>
	<g id="XMLID_212_">
		<path id="XMLID_33_" class="st0" d="M170.5,95.9h-6.9c0-3.3,0.2-6.6,0-9.8c-0.6-8.3-6.8-15.5-14.7-17.3
			c-8.5-1.9-17.4,1.7-21.3,9.2c-1.5,2.9-2.1,6.5-2.7,9.8c-0.4,2.6-0.1,5.3-0.1,8.1H118c-1.1-11.4,0.5-21.7,10.4-29.2
			c8.5-6.4,20-7.2,29.1-1.8C169.1,71.9,171.9,82.8,170.5,95.9z"/>
	</g>
	<g id="XMLID_208_">
		<g id="XMLID_211_">
			<path id="XMLID_31_" class="st0" d="M202.3,186.8c0-0.1,0-0.2,0-0.3c-0.8-4.3-1.5-8.5-2.3-12.8c-0.9-4.8-1.8-9.7-2.6-14.5
				l-6.4-35.6l-21.8,47.5l1.7,9.4c0,0,2.1,11.4,2.5,13l1.6,8.3l29-5.2L202.3,186.8z"/>
		</g>
		<g id="XMLID_210_">
			<path id="XMLID_22_" class="st0" d="M90.9,159.2c-0.9,4.8-1.8,9.7-2.6,14.5c-0.8,4.2-1.5,8.5-2.3,12.8c0,0.1,0,0.2,0,0.3
				l-1.7,9.7l29,5.2l1.6-8.3c0.4-1.5,2.5-13,2.5-13l1.7-9.4l-21.7-47.4L90.9,159.2z"/>
		</g>
		<g id="XMLID_209_">
			<path id="XMLID_19_" class="st0" d="M164.3,168.5c6.6-14.6,17.4-39.2,21.6-48.7l0,0l3.5-7.7l-10-1.6c-2.1-0.4-4.2-0.7-6.3-1
				l-9.2-1.5c-0.2,0-0.3-0.1-0.5-0.1c-0.9-0.2-1.7-0.3-2.3-0.4l-2.1-0.3c0,0-3.1,5.8-4.7,8.7c-3.2,5.6-6.5,11.3-9.9,17.2
				c-2.8-4.8-5.4-9.4-8-14c-0.4-0.7-0.8-1.4-1.2-2.1c-1.2-2.2-5.3-9.9-5.3-9.9l-2.1,0.3c-0.7,0-1.4,0.2-2.4,0.4
				c-0.3,0.1-0.5,0.1-0.8,0.1l-8.5,1.4c-2.3,0.3-4.6,0.7-7,1.1l-9.6,1.5l3.5,7.7c4.2,9.5,15,34.1,21.6,48.7l0,0l5.6,13.3h12.6
				c0.5,0,1.1,0,1.6,0l0,0l0,0l0,0l0,0c0.5,0,1.1,0,1.6,0h12.6L164.3,168.5z"/>
		</g>
	</g>
</g>
</svg>
